<?xml version="1.0" standalone="no"?><!DOCTYPE svg PUBLIC "-//W3C//DTD SVG 1.1//EN" "http://www.w3.org/Graphics/SVG/1.1/DTD/svg11.dtd"><svg t="1544286752589" class="icon" style="" viewBox="0 0 1024 1024" version="1.1" xmlns="http://www.w3.org/2000/svg" p-id="2238" xmlns:xlink="http://www.w3.org/1999/xlink" width="200" height="200"><defs><style type="text/css"></style></defs><path d="M758.4 228.8 516.8 470.4 276.8 228.8 238.4 265.6 480 507.2 238.4 748.8 276.8 787.2 516.8 545.6 758.4 787.2 796.8 748.8 555.2 507.2 796.8 265.6Z" p-id="2239"></path><path d="M516.8 59.2c-246.4 0-448 201.6-448 448s201.6 448 448 448 448-201.6 448-448S764.8 59.2 516.8 59.2zM516.8 907.2c-220.8 0-400-179.2-400-400s179.2-400 400-400 400 179.2 400 400S737.6 907.2 516.8 907.2z" p-id="2240"></path></svg>