<?xml version="1.0" standalone="no"?><!DOCTYPE svg PUBLIC "-//W3C//DTD SVG 1.1//EN" "http://www.w3.org/Graphics/SVG/1.1/DTD/svg11.dtd"><svg t="1543234627313" class="icon" style="" viewBox="0 0 1024 1024" version="1.1" xmlns="http://www.w3.org/2000/svg" p-id="5895" xmlns:xlink="http://www.w3.org/1999/xlink" width="200" height="200"><defs><style type="text/css"></style></defs><path d="M526.74 515.18m-389.4 0a389.4 389.4 0 1 0 778.8 0 389.4 389.4 0 1 0-778.8 0Z" fill="#EDC3C3" p-id="5896"></path><path d="M829.37 780.61a8.29 8.29 0 0 1-6.46-13.48c0.11-0.14 11.19-14 20.64-28 47.36-70.36 71-145.67 70.19-223.84C912 343.56 792.15 217.53 690 161.78a8.29 8.29 0 1 1 8-14.55c61.9 33.8 118.5 85.12 159.35 144.52 47 68.27 72.2 145.5 73 223.35 0.52 51.42-9.37 102.54-29.39 152a435.56 435.56 0 0 1-43.62 81.31c-9.86 14.64-21 28.56-21.47 29.14a8.28 8.28 0 0 1-6.5 3.06zM549.11 115.74a8.34 8.34 0 0 1-1.07-0.07 357.3 357.3 0 0 0-37-2.9c-7-0.2-14.05-0.19-21 0a8.29 8.29 0 1 1-0.53-16.58c7.32-0.24 14.74-0.25 22.05 0a373.15 373.15 0 0 1 38.59 3 8.29 8.29 0 0 1-1.05 16.52zM519.38 934.28c-2.75 0-5.5 0-8.28-0.11-93.87-2.53-198.3-48.4-279.35-122.71C141.85 729 92.33 623.8 92.33 515.18c0-191.14 141.35-313.9 147.37-319a8.29 8.29 0 1 1 10.76 12.62c-1.58 1.35-39.14 33.68-75.13 89.92-44.07 68.86-66.41 141.7-66.41 216.5 0 220.53 216.44 397.4 402.63 402.41 76.65 2.08 147.09-27.79 147.79-28.09l0.2-0.08a391.08 391.08 0 0 0 53-26 8.29 8.29 0 0 1 8.41 14.29 407.81 407.81 0 0 1-55.13 27.09c-4.11 1.69-70.2 29.44-146.44 29.44z" fill="" p-id="5897"></path><path d="M405.41 435.45c-5.74-0.68-20.35-27.18-24.06-32.55-8.61-12.46-16.77-25.24-24.34-38.35-43.68-75.65-63.55-165.35-36.39-250.79 4.1-12.9 9.71-30.78 23.22-36.82 6.67-3 14.44-2.29 21.48-0.33 99.37 27.68 140.27 129.91 164.11 220 7 26.31 12.82 52.78 16.13 79.87 0.5 4.08-0.56 28.39 2.51 31l13.75 11.75 6.37-27.86c1.09-4.75-1.9-13.14-2.55-17.88q-3.09-22.48-5.67-45c-3.87-34-8.15-68.24-4.84-102.53 2.76-28.6 10.65-57 25.89-81.4 21.13-33.77 58.58 10.74 73.28 28.33a274.63 274.63 0 0 1 61 217.46c-4.2 28-22.14 54.08-37.93 77.33z" fill="#EDC3C3" p-id="5898"></path><path d="M433.83 428.67c-5.33-0.67-35.9-32.74-53.86-66.53-17.32-32.6-30.45-68.93-37.06-105.08-7.42-40.59-10.48-82.47-3-123.54 1.88-10.33 4.8-20.89 11.63-28.86 15.71-18.36 45.59-8.85 63 1.95 20.59 12.74 36.89 32.09 50.75 51.63 30.77 43.41 53.72 94.49 67 146 6.51 25.2 12 50.55 15.15 76.48 0.47 3.91-0.45 27.17 2.4 29.69l12.78 11.28 5.91-26.69c1-4.54-1.79-12.58-2.41-17.12q-2.92-21.52-5.37-43.1c-3.67-32.59-7.72-65.34-4.73-98.14 2.49-27.36 9.75-54.57 23.83-77.85 19.52-32.28 54.37 10.41 68 27.29a268.87 268.87 0 0 1 47.62 89A273.2 273.2 0 0 1 705 394.35c-3.83 26.78-20.41 51.71-35 73.93z" fill="#F25644" p-id="5899"></path><path d="M680.21 473.89l-3.5-0.42-272-32.25c-6.26-0.74-12.33-9.18-24.44-29.06-1.6-2.63-3-4.9-3.72-6-8.94-12.94-17.22-26-24.59-38.75-49.12-85.06-62.22-175.78-36.9-255.45l0.08-0.25c4.43-13.95 10.5-33.05 26.3-40.11 7-3.15 15.59-3.36 25.41-0.62 46 12.82 84.27 42.79 113.72 89.08 21.86 34.37 39.16 77.29 54.44 135.07 8.14 30.8 13.32 56.42 16.28 80.65 0.17 1.42 0.2 3.74 0.22 8 0 5 0.1 16.45 1.05 19.9l5.7 4.87 4.23-18.51c0.44-1.94-0.69-6.75-1.44-9.93-0.5-2.11-1-4.11-1.21-5.87-2.12-15.45-4-30.64-5.69-45.16l-0.57-5c-3.68-32.2-7.48-65.5-4.28-98.71 3.12-32.3 12.12-60.54 26.75-83.92 5.84-9.33 13.35-14.37 22.35-15 23.38-1.61 48.31 28.3 60.31 42.67a280.44 280.44 0 0 1 62.32 222c-4.33 28.88-22.31 55.35-38.17 78.7z m-273.45-44.13l267.81 31.76c14.84-21.86 31.18-46.48 35-72a268.82 268.82 0 0 0-59.74-212.88c-9.07-10.86-33.16-39.74-50.6-38.53-5.14 0.35-9.49 3.48-13.29 9.55-13.67 21.84-22.09 48.38-25 78.88-3.09 32 0.65 64.67 4.26 96.27l0.57 5c1.64 14.43 3.54 29.53 5.66 44.89 0.17 1.22 0.58 3 1 4.79 1.17 5 2.5 10.61 1.45 15.18l-8.52 37.22-21-18c-3.61-3.08-4.25-9.7-4.36-28 0-2.76 0-5.88-0.14-6.71-2.9-23.69-8-48.82-16-79.09C501 212 462.27 109.64 363.76 82.2c-7.14-2-13-2-17.55 0-11 4.94-16.21 21.17-20 33l-0.08 0.25C301.84 192 314.58 279.44 362 361.64c7.22 12.5 15.32 25.27 24.09 38 0.92 1.34 2.32 3.63 4.08 6.52 3.58 5.76 12.83 20.95 16.59 23.6z" fill="" p-id="5900"></path><path d="M528 413.15s1.39-27.37 25.74-27.67 44.78 23.12 46.79 40.6-71.23 3.64-71.23 3.64z" fill="#EDC3C3" p-id="5901"></path><path d="M528.16 415.46s0.82-24.88 19.91-24.91 35.34 21.47 37.08 37.4-55.81 2.61-55.81 2.61z" fill="#F25644" p-id="5902"></path><path d="M577.46 441.25c-5 0-11-0.29-18.12-1-16.12-1.51-30.64-4.23-31.25-4.35l-4.76-0.9-1.7-21.81v-0.41c0.58-11.52 8-33.39 32-33.68h0.53c26.69 0 50.16 24.72 52.63 46.22a11.46 11.46 0 0 1-3.69 9.9c-2.93 2.78-8.79 6.03-25.64 6.03z m-42.25-16.92c5.63 0.94 15.53 2.46 25.86 3.4 24.7 2.26 31.57-0.59 33.07-1.5-2-14.16-19.32-34.42-40-34.42h-0.39c-17.1 0.21-19.23 18.39-19.46 21.29z" fill="" p-id="5903"></path><path d="M800.5 707.4C770.44 821.61 638.69 888 482.82 828.2 286.62 752.91 244 683 274.09 568.82s172.27-175.76 317.64-137.49S830.57 593.2 800.5 707.4z" fill="#F7DEC8" p-id="5904"></path><path d="M267.4 601.27C260.35 511 314 462.38 394 430.5c90.31-7.05 160.78 46.52 167.83 136.82s-57.64 173.54-148.19 176.09c-89.91 2.54-139.18-51.83-146.24-142.14z" fill="#FFFFFF" p-id="5905"></path><path d="M408.37 748.77c-43.44 0-82.87-16.36-115.29-43.46-17.76-35-24.24-62.45-27.72-107 11.13-74.83 35.73-116.92 120.1-162.57 44.95-3.52 90.47-13.87 124.18 15.6 33.51 29.29 53.91 70.32 57.44 115.54 3.74 47.92-12.12 95.42-43.52 130.35-28.75 32-67.74 50.24-109.79 51.43q-2.69 0.11-5.4 0.11z m-143-150.44c6.59 84.31 58.87 142.35 148.12 139.8C452.62 737 488.92 720 515.72 690.2c29.48-32.78 44.36-77.42 40.85-122.47-6.93-88.74-77-139.63-164.29-132.81-39.7 11.71-57.94 24.58-85.5 56.81s-44.71 64.33-41.41 106.6z" fill="" p-id="5906"></path><path d="M271.36 576.45c-4.88-84.65 71.59-129.1 149.64-135.2s90.94 34.89 110.32 117.39c20.22 86.11-33.5 154.1-111.27 163.22-84.41 9.91-143.52-55.63-148.69-145.41z" fill="#D382A1" p-id="5907"></path><path d="M297.95839 604.532925a107.04 109.26 85.53 1 0 217.855323-17.030815 107.04 109.26 85.53 1 0-217.855323 17.030815Z" fill="#191919" p-id="5908"></path><path d="M403.769817 600.177995m-41.114559 3.214126a41.24 41.24 0 1 0 82.229119-6.428252 41.24 41.24 0 1 0-82.229119 6.428252Z" fill="#FFFFFF" p-id="5909"></path><path d="M683.63623 809.254741a86.18 131.35 16.83 1 0 76.060322-251.448041 86.18 131.35 16.83 1 0-76.060322 251.448041Z" fill="#FFFFFF" p-id="5910"></path><path d="M644.79 775.38c2 5.27 20.43 10 25.39 11.69 31 10.34 58.58-10.52 78.13-32.77s32.82-51.08 35-80.8c2.52-33.65-8.32-66.85-23.84-96.29l-73.3 0.38s-37.52 50.61-44 83.18-10.27 80.99 2.62 114.61z" fill="#C27394" p-id="5911"></path><path d="M637.94 745.13c1.81 12.78 27 20.35 37.29 21 13 0.77 24.09-4 34.89-10.62 15.83-9.69 29.85-22.83 38.72-39.14s12.23-35 12.53-53.45a282.38 282.38 0 0 0-7.37-68.73c-2.59-10.81-7.16-29.85-20.06-32.93-20.26-4.83-57.4 20.52-62 27.29s-27.26 45.1-31.5 73-3.94 73.45-2.5 83.58z" fill="#191919" p-id="5912"></path><path d="M700.65 817.09a63.72 63.72 0 0 1-18.52-2.73c-23.79-7.2-41.8-27.81-50.72-58-8.68-29.44-7.71-64.68 2.75-99.23s29.18-64.43 52.72-84.11c24.17-20.21 50.59-27.38 74.38-20.18 16.27 11.42 26.82 29.47 35.73 59.7 8.68 29.43 17.76 60.43 12.24 97.57-10.46 34.56-29.18 64.43-52.72 84.11-18.04 15.05-37.34 22.87-55.86 22.87z m42.1-256.44c-38.91 0-80.74 40.85-98.49 99.51-9.87 32.61-10.83 65.7-2.73 93.19 7.88 26.7 23.38 44.78 43.65 50.91s43.2-0.32 64.55-18.17c22-18.38 39.52-46.46 49.39-79.07 8.9-68-9.1-122.53-40.92-144.1a53.19 53.19 0 0 0-15.44-2.28z" fill="" p-id="5913"></path><path d="M303.48 495.77l117.13 9.79L480.15 465a0.62 0.62 0 0 1 1 0.67l-12 48.12 128 29.34L614.46 491a1.66 1.66 0 0 1 3.1-0.13l30.67 71.29L703 584.41l9.82-42.68a0.6 0.6 0 0 1 1.14-0.12L742 602.74l64.27 33.13s-24.27-65.34-69.09-115.1C641 399 442 418 442 418l-117.17 50.28z" fill="#EDC3C3" p-id="5914"></path><path d="M334.57 498.36l86 7.2L480.15 465a0.62 0.62 0 0 1 1 0.67l-12 48.12 128 29.34L614.46 491a1.66 1.66 0 0 1 3.1-0.13l30.67 71.29L703 584.41l9.82-42.68a0.6 0.6 0 0 1 1.14-0.12L742 602.74s66.46 39.26 64.27 33.13C765 520.5 670 468.28 670 468.28S621 420 488.75 431.83c-48.38 4.34-95.81 27.65-115.1 39.07-19.65 11.65-39.08 27.46-39.08 27.46z" fill="#FB9835" p-id="5915"></path><path d="M803.74 638l-66.14-31-22.6-49.09-7.92 34.45-63.28-25.69-27.3-63.47-15.5 46.72-138.93-31.84 10.12-40.67-50 34.11-117.52-11.85 17.12-25.78s78.83-51.66 129.9-55.4 168.62-2.36 261.53 76.32S803.74 638 803.74 638z m-57.26-39.49l49.51 31s37.36 13.7-58.82-108.73S447.77 419 447.77 419s-90.27 20-120.27 49.26-19.51 22-19.51 22L419 499.6l57.84-39.45a6.43 6.43 0 0 1 9.87 6.86L476.2 509.4l117.09 26.84L609 489.19a7.47 7.47 0 0 1 13.94-0.6l29.73 69.1 46.23 18.77 8.29-36a6.41 6.41 0 0 1 12.08-1.24z" fill="" p-id="5916"></path><path d="M662.514768 709.478535a30.05 34.53 18.28 1 0 21.66143-65.574889 30.05 34.53 18.28 1 0-21.66143 65.574889Z" fill="#FFFFFF" p-id="5917"></path><path d="M567.5 799.54q-1.73 0-3.52-0.17c-20.72-2-29.48-35-30.41-38.7a5.81 5.81 0 0 1 11.27-2.81c1.86 7.44 9.58 28.9 20.27 29.95 14.05 1.38 23.91-9.94 24-10.05a5.81 5.81 0 0 1 8.83 7.55c-0.52 0.61-12.39 14.23-30.44 14.23z" fill="" p-id="5918"></path><path d="M584.56 876.89c-43.39 0-88.23-8.92-131.37-26.51-70.31-28.68-127.76-77-161.76-136.13-34.27-59.58-40.67-123-18-178.48s71.55-96.34 137.71-115c65.64-18.47 140.51-12.85 210.83 15.83s127.76 77 161.76 136.13c34.27 59.58 40.67 123 18 178.48s-71.56 96.39-137.73 115a293.38 293.38 0 0 1-79.44 10.68z m-94-455c-94 0-175.77 43-206.46 118.29C240 648.3 317.84 782.64 457.57 839.63c67.93 27.7 140.13 33.18 203.29 15.37C723.5 837.41 769.71 799 791 746.87c44.1-108.13-33.7-242.47-173.43-299.46-42.51-17.33-85.91-25.54-126.96-25.54z" fill="" p-id="5919"></path></svg>